HIERARCHY
ROOT ui
{
	 OFFSET 0 0 0
	 CHANNELS 3 XPosition YPosition Z Position
	 EndSite
	 {
	 OFFSET 0 -1 0
	 }
}
ROOT li
{
	 OFFSET 0 0 0
	 CHANNELS 3 XPosition YPosition Z Position
	 EndSite
	 {
	 OFFSET 0 -1 0
	 }
}
ROOT ul
{
	 OFFSET 0 0 0
	 CHANNELS 3 XPosition YPosition Z Position
	 EndSite
	 {
	 OFFSET 0 -1 0
	 }
}
ROOT ll
{
	 OFFSET 0 0 0
	 CHANNELS 3 XPosition YPosition Z Position
	 EndSite
	 {
	 OFFSET 0 -1 0
	 }
}
ROOT tt
{
	 OFFSET 0 0 0
	 CHANNELS 3 XPosition YPosition Z Position
	 EndSite
	 {
	 OFFSET 0 -1 0
	 }
}
ROOT tb
{
	 OFFSET 0 0 0
	 CHANNELS 3 XPosition YPosition Z Position
	 EndSite
	 {
	 OFFSET 0 -1 0
	 }
}
ROOT td
{
	 OFFSET 0 0 0
	 CHANNELS 3 XPosition YPosition Z Position
	 EndSite
	 {
	 OFFSET 0 -1 0
	 }
}
ROOT v
{
	 OFFSET 0 0 0
	 CHANNELS 3 XPosition YPosition Z Position
	 EndSite
	 {
	 OFFSET 0 -1 0
	 }
}
ROOT bn
{
	 OFFSET 0 0 0
	 CHANNELS 3 XPosition YPosition Z Position
	 EndSite
	 {
	 OFFSET 0 -1 0
	 }
}
MOTION
Frames: 18
Frame Time: 0.002
0.0021871860027313232	-0.003510447025299072	0		0.7742827758789063	-2.942626708984375	0		-0.946678955078125	-0.1595585021972656	0		-0.17678204345703125	-2.76962744140625	0		1.413609619140625	-1.186895751953125	0		2.795129150390625	-0.19779060363769532	0		4.053127685546875	0.4007155456542969	0		5.9678984375	0.45382427978515627	0		-0.1907359619140625	5.89011181640625	0		
-0.0018414809703826904	0.001926416039466858	0		0.8243077392578125	-2.9507548828125	0		-0.9586387329101562	-0.14909677124023438	0		-0.19467283630371093	-2.7690419921875	0		1.409721435546875	-1.176360107421875	0		2.783022705078125	-0.2000651092529297	0		4.0489443359375	0.3954377746582031	0		5.96419873046875	0.4397637939453125	0		-0.19123643493652343	5.8904892578125	0		
0.00199762499332428	-0.0027187991142272948	0		0.75641552734375	-2.949520751953125	0		-1.030681396484375	-0.14394224548339843	0		-0.19177644348144532	-2.7856884765625	0		1.3959981689453125	-1.149702880859375	0		2.7887275390625	-0.21753715515136718	0		4.0405966796875	0.37721426391601565	0		5.9763076171875	0.4529596862792969	0		-0.19077552795410158	5.88886474609375	0		
0.006829076766967773	-0.00636906099319458	0		0.8134889526367187	-2.9497099609375	0		-0.9416869506835938	-0.134616455078125	0		-0.22973072814941406	-2.7868642578125	0		1.4011796875	-1.1292601318359374	0		2.78282373046875	-0.19887496948242187	0		4.052447265625	0.37775833129882813	0		5.97622119140625	0.4543709106445312	0		-0.2253639678955078	5.88364404296875	0		
0.009807318687438964	0.005005937099456787	0		0.7797020874023437	-2.933866455078125	0		-1.0097185668945312	-0.1245007553100586	0		-0.20080270385742188	-2.79579638671875	0		1.39128662109375	-1.1126500244140625	0		2.773397705078125	-0.22418547058105467	0		4.040074951171875	0.36056201171875	0		5.967576171875	0.45943780517578126	0		-0.22303155517578124	5.871005859375	0		
0.0015550479888916016	-0.0014934649467468262	0		0.8255488891601562	-2.946927001953125	0		-0.9358001708984375	-0.11698033142089843	0		-0.21498255920410156	-2.810239990234375	0		1.382357177734375	-1.096059814453125	0		2.76919189453125	-0.22757028198242188	0		4.0366669921875	0.34224008178710935	0		5.96381494140625	0.445277099609375	0		-0.22354466247558594	5.87140283203125	0		
-0.07269187927246094	-0.004258040904998779	0		0.8005255126953125	-2.943197998046875	0		-1.0079520263671875	-0.11181497955322266	0		-0.17016244506835937	-2.8203447265625	0		1.390316650390625	-1.085671875	0		2.76594091796875	-0.2319886474609375	0		4.040375732421875	0.33680746459960936	0		5.9727490234375	0.40473956298828123	0		-0.22404742431640626	5.8717998046875	0		
0.001106814980506897	-6.802870035171509E-4	0		0.7983848266601562	-2.944737548828125	0		-1.0090885009765624	-0.10244174194335938	0		-0.24632589721679687	-2.823100830078125	0		1.27030615234375	-1.067874267578125	0		2.783797119140625	-0.2236692352294922	0		4.0360537109375	0.33142584228515626	0		5.97622412109375	0.42307830810546876	0		-0.22453407287597657	5.8721953125	0		
0.005791153907775879	-0.004335748195648193	0		0.81317431640625	-2.947478271484375	0		-1.0112561645507812	-0.09305278015136718	0		-0.21176358032226564	-2.84609619140625	0		1.39628369140625	-1.04883349609375	0		2.766323486328125	-0.24199014282226564	0		4.044627197265625	0.31885623168945315	0		5.97603125	0.4241055908203125	0		-0.2259826202392578	5.8735986328125	0		
0.008621252059936524	0.007024256229400635	0		0.80305810546875	-2.936956787109375	0		-1.0094130249023439	-0.08070387268066406	0		-0.261923828125	-2.8391533203125	0		1.211380615234375	-1.0143619384765625	0		2.794101806640625	-0.2358467559814453	0		4.044129150390625	0.30133905029296876	0		5.96799462890625	0.4286845703125	0		-0.22541314697265624	5.8729765625	0		
2.406969964504242E-4	5.002350211143493E-4	0		0.8007643432617187	-2.938538818359375	0		-0.9386757202148438	-0.07711383056640625	0		-0.208432373046875	-2.86036572265625	0		1.2191982421875	-1.0040510864257812	0		2.79466796875	-0.24743997192382813	0		4.052677978515625	0.28867086791992186	0		5.96777880859375	0.429466552734375	0		-0.22676895141601563	5.8743720703125	0		
0.004888350009918213	-0.00317604398727417	0		0.7973999633789063	-2.943126953125	0		-1.0168681030273437	-0.0658719482421875	0		-0.2528384094238281	-2.868499267578125	0		1.230033203125	-0.99079541015625	0		2.787260986328125	-0.25598448181152345	0		4.0561044921875	0.26500494384765627	0		5.95677392578125	0.41137530517578125	0		-0.2270739288330078	5.8747509765625	0		
0.004582802772521973	-0.002806828022003174	0		0.7990816040039063	-2.940789306640625	0		-1.0171743774414062	-0.06549060821533204	0		-0.22932345581054686	-2.88139208984375	0		1.2376600341796875	-0.995529052734375	0		2.802729736328125	-0.27582431030273435	0		4.064657470703125	0.2522271728515625	0		5.96019287109375	0.4273639526367187	0		-0.22632086181640626	5.87411181640625	0		
0.004285062789916992	-0.0024482550621032716	0		0.7856944580078125	-2.9423046875	0		-1.043349853515625	-0.05382041168212891	0		-0.2897618408203125	-2.887361572265625	0		1.2596378173828124	-0.9684449462890625	0		2.830668212890625	-0.25384271240234374	0		4.080286865234375	0.24531459045410156	0		5.95997998046875	0.42774365234375	0		-0.2464258575439453	5.87969775390625	0		
0.011077046394348145	0.004820772171020508	0		0.8034080200195313	-2.93318505859375	0		-1.012483154296875	-0.039783443450927734	0		-0.22828298950195314	-2.89969384765625	0		1.2745078125	-0.9513082885742188	0		2.8181298828125	-0.2754564514160156	0		4.087942626953125	0.23943461608886718	0		5.9561376953125	0.4125181884765625	0		-0.2275570068359375	5.87584228515625	0		
-0.0012258199453353883	0.0022906689643859865	0		0.80098583984375	-2.93486181640625	0		-1.0676846923828125	-0.03278811264038086	0		-0.3196757507324219	-2.898330322265625	0		1.2882392578125	-0.9471853637695312	0		2.829790771484375	-0.2803788146972656	0		4.095615234375	0.2335009002685547	0		5.955943359375	0.4126399841308594	0		-0.22756758117675782	5.8761884765625	0		
0.003475513935089111	-0.0014414570331573485	0		0.7985532836914062	-2.936558349609375	0		-1.024897705078125	-0.02889068603515625	0		-0.26126751708984375	-2.914651123046875	0		1.303125244140625	-0.9301000366210938	0		2.85536328125	-0.29449737548828125	0		4.12493408203125	0.19427139282226563	0		5.95576025390625	0.41264492797851565	0		-0.21238475036621093	5.88735498046875	0		
1.9436399638652802E-4	-0.005097208976745605	0		0.7721724853515625	-2.933003662109375	0		-1.064133056640625	-0.028076934814453124	0		-0.3387227783203125	-2.917454833984375	0		1.26307177734375	-0.9084192504882812	0		2.876254638671875	-0.2816003723144531	0		4.16769580078125	0.1928428497314453	0		5.959228515625	0.4280148620605469	0		-0.19713609313964844	5.89850830078125	0		
